adventprofmm-Regular.ufo
<glyph name="dollar" format="1">
  <advance width="528"/>
  <unicode hex="0024"/>
  <outline>
    <contour>
      <point x="248" y="-113" type="line"/>
      <point x="248" y="815" type="line"/>
      <point x="304" y="815" type="line"/>
      <point x="304" y="-113" type="line"/>
    </contour>
    <component base="S"/>
  </outline>
</glyph>
<glyph name="percent" format="1">
  <advance width="711"/>
  <unicode hex="0025"/>
  <outline>
    <contour>
      <point x="48" y="0" type="line"/>
      <point x="585" y="698" type="line"/>
      <point x="649" y="698" type="line"/>
      <point x="115" y="0" type="line"/>
    </contour>
    <contour>
      <point x="175" y="712" type="qcurve" smooth="yes"/>
      <point x="215" y="712"/>
      <point x="281" y="673"/>
      <point x="320" y="607"/>
      <point x="320" y="566" type="qcurve" smooth="yes"/>
      <point x="320" y="526"/>
      <point x="281" y="460"/>
      <point x="215" y="421"/>
      <point x="175" y="421" type="qcurve" smooth="yes"/>
      <point x="135" y="421"/>
      <point x="68" y="460"/>
      <point x="29" y="526"/>
      <point x="29" y="566" type="qcurve" smooth="yes"/>
      <point x="29" y="607"/>
      <point x="68" y="673"/>
      <point x="135" y="712"/>
    </contour>
    <contour>
      <point x="175" y="661" type="qcurve" smooth="yes"/>
      <point x="149" y="661"/>
      <point x="106" y="635"/>
      <point x="80" y="592"/>
      <point x="80" y="566" type="qcurve" smooth="yes"/>
      <point x="80" y="541"/>
      <point x="106" y="498"/>
      <point x="149" y="472"/>
      <point x="175" y="472" type="qcurve" smooth="yes"/>
      <point x="201" y="472"/>
      <point x="243" y="498"/>
      <point x="269" y="541"/>
      <point x="269" y="566" type="qcurve" smooth="yes"/>
      <point x="269" y="592"/>
      <point x="243" y="635"/>
      <point x="201" y="661"/>
    </contour>
    <contour>
      <point x="534" y="276" type="qcurve" smooth="yes"/>
      <point x="575" y="276"/>
      <point x="640" y="237"/>
      <point x="679" y="171"/>
      <point x="679" y="131" type="qcurve" smooth="yes"/>
      <point x="679" y="91"/>
      <point x="640" y="25"/>
      <point x="575" y="-14"/>
      <point x="534" y="-14" type="qcurve" smooth="yes"/>
      <point x="495" y="-14"/>
      <point x="429" y="25"/>
      <point x="390" y="91"/>
      <point x="390" y="131" type="qcurve" smooth="yes"/>
      <point x="390" y="171"/>
      <point x="429" y="237"/>
      <point x="495" y="276"/>
    </contour>
    <contour>
      <point x="534" y="226" type="qcurve" smooth="yes"/>
      <point x="509" y="226"/>
      <point x="466" y="201"/>
      <point x="441" y="158"/>
      <point x="441" y="131" type="qcurve" smooth="yes"/>
      <point x="441" y="105"/>
      <point x="466" y="62"/>
      <point x="509" y="37"/>
      <point x="534" y="37" type="qcurve" smooth="yes"/>
      <point x="561" y="37"/>
      <point x="604" y="62"/>
      <point x="629" y="105"/>
      <point x="629" y="131" type="qcurve" smooth="yes"/>
      <point x="629" y="158"/>
      <point x="604" y="201"/>
      <point x="561" y="226"/>
    </contour>
  </outline>
</glyph>
<glyph name="parenleft" format="1">
  <advance width="181"/>
  <unicode hex="0028"/>
  <outline>
    <contour>
      <point x="164" y="778" type="line"/>
      <point x="147" y="766"/>
      <point x="122" y="735"/>
      <point x="105" y="699"/>
      <point x="97" y="658"/>
      <point x="97" y="635" type="qcurve" smooth="yes"/>
      <point x="97" y="539"/>
      <point x="97" y="348"/>
      <point x="97" y="158"/>
      <point x="97" y="62" type="qcurve" smooth="yes"/>
      <point x="97" y="38"/>
      <point x="105" y="-3"/>
      <point x="122" y="-39"/>
      <point x="147" y="-69"/>
      <point x="164" y="-81" type="qcurve"/>
      <point x="146" y="-119" type="line"/>
      <point x="127" y="-105"/>
      <point x="90" y="-77"/>
      <point x="59" y="-39"/>
      <point x="41" y="22"/>
      <point x="41" y="70" type="qcurve" smooth="yes"/>
      <point x="41" y="625" type="line" smooth="yes"/>
      <point x="41" y="675"/>
      <point x="64" y="746"/>
      <point x="111" y="796"/>
      <point x="146" y="815" type="qcurve"/>
    </contour>
  </outline>
</glyph>
<glyph name="parenright" format="1">
  <advance width="182"/>
  <unicode hex="0029"/>
  <outline>
    <contour>
      <point x="36" y="815" type="line"/>
      <point x="71" y="796"/>
      <point x="117" y="746"/>
      <point x="140" y="675"/>
      <point x="140" y="625" type="qcurve" smooth="yes"/>
      <point x="140" y="70" type="line" smooth="yes"/>
      <point x="140" y="22"/>
      <point x="122" y="-39"/>
      <point x="92" y="-77"/>
      <point x="55" y="-105"/>
      <point x="36" y="-119" type="qcurve"/>
      <point x="17" y="-81" type="line"/>
      <point x="34" y="-69"/>
      <point x="59" y="-39"/>
      <point x="76" y="-3"/>
      <point x="84" y="38"/>
      <point x="84" y="62" type="qcurve" smooth="yes"/>
      <point x="84" y="158"/>
      <point x="84" y="348"/>
      <point x="84" y="539"/>
      <point x="84" y="635" type="qcurve" smooth="yes"/>
      <point x="84" y="658"/>
      <point x="76" y="699"/>
      <point x="59" y="735"/>
      <point x="34" y="766"/>
      <point x="17" y="778" type="qcurve"/>
    </contour>
  </outline>
</glyph>
<glyph name="one" format="1">
  <advance width="235"/>
  <unicode hex="0031"/>
  <outline>
    <contour>
      <point x="13" y="620" type="line"/>
      <point x="13" y="620"/>
      <point x="56" y="635"/>
      <point x="115" y="670"/>
      <point x="138" y="698" type="qcurve"/>
      <point x="192" y="698" type="line"/>
      <point x="192" y="0" type="line"/>
      <point x="139" y="0" type="line"/>
      <point x="139" y="632" type="line"/>
      <point x="127" y="623"/>
      <point x="87" y="600"/>
      <point x="44" y="583"/>
      <point x="27" y="581" type="qcurve"/>
    </contour>
  </outline>
</glyph>
<glyph name="two" format="1">
  <advance width="412"/>
  <unicode hex="0032"/>
  <outline>
    <contour>
      <point x="42" y="588" type="line"/>
      <point x="65" y="650"/>
      <point x="157" y="707"/>
      <point x="207" y="708" type="qcurve" smooth="yes"/>
      <point x="250" y="709"/>
      <point x="328" y="671"/>
      <point x="378" y="600"/>
      <point x="377" y="549" type="qcurve"/>
      <point x="377" y="519"/>
      <point x="353" y="447"/>
      <point x="322" y="394" type="qcurve"/>
      <point x="284" y="337"/>
      <point x="208" y="223"/>
      <point x="132" y="110"/>
      <point x="94" y="53" type="qcurve"/>
      <point x="378" y="53" type="line"/>
      <point x="378" y="0" type="line"/>
      <point x="29" y="0" type="line"/>
      <point x="29" y="53" type="line"/>
      <point x="89" y="145"/>
      <point x="216" y="328"/>
      <point x="274" y="425" type="qcurve" smooth="yes"/>
      <point x="293" y="456"/>
      <point x="312" y="495"/>
      <point x="318" y="524"/>
      <point x="318" y="539" type="qcurve" smooth="yes"/>
      <point x="318" y="576"/>
      <point x="286" y="628"/>
      <point x="235" y="655"/>
      <point x="206" y="654" type="qcurve"/>
      <point x="172" y="654"/>
      <point x="111" y="613"/>
      <point x="94" y="569" type="qcurve"/>
    </contour>
  </outline>
</glyph>
<glyph name="nine" format="1">
  <advance width="480"/>
  <unicode hex="0039"/>
  <outline>
    <contour>
      <point x="235" y="707" type="qcurve" smooth="yes"/>
      <point x="324" y="707"/>
      <point x="385" y="646" type="qcurve" smooth="yes"/>
      <point x="447" y="584"/>
      <point x="447" y="495" type="qcurve" smooth="yes"/>
      <point x="447" y="238" type="line" smooth="yes"/>
      <point x="447" y="197"/>
      <point x="422" y="119"/>
      <point x="396" y="84" type="qcurve" smooth="yes"/>
      <point x="370" y="47"/>
      <point x="270" y="-1"/>
      <point x="204" y="-1" type="qcurve" smooth="yes"/>
      <point x="169" y="-1" type="line"/>
      <point x="169" y="54" type="line"/>
      <point x="207" y="54" type="line" smooth="yes"/>
      <point x="245" y="54"/>
      <point x="310" y="78"/>
      <point x="337" y="102" type="qcurve" smooth="yes"/>
      <point x="365" y="127"/>
      <point x="392" y="198"/>
      <point x="392" y="245" type="qcurve" smooth="yes"/>
      <point x="392" y="352" type="line"/>
      <point x="371" y="330"/>
      <point x="323" y="299"/>
      <point x="268" y="284"/>
      <point x="238" y="284" type="qcurve" smooth="yes"/>
      <point x="192" y="284"/>
      <point x="116" y="315"/>
      <point x="85" y="345" type="qcurve" smooth="yes"/>
      <point x="23" y="407"/>
      <point x="23" y="495" type="qcurve" smooth="yes"/>
      <point x="23" y="584"/>
      <point x="85" y="646" type="qcurve" smooth="yes"/>
      <point x="148" y="707"/>
    </contour>
    <contour>
      <point x="235" y="652" type="qcurve" smooth="yes"/>
      <point x="192" y="652"/>
      <point x="121" y="610"/>
      <point x="79" y="539"/>
      <point x="79" y="495" type="qcurve" smooth="yes"/>
      <point x="79" y="452"/>
      <point x="121" y="381"/>
      <point x="192" y="339"/>
      <point x="235" y="339" type="qcurve" smooth="yes"/>
      <point x="279" y="339"/>
      <point x="350" y="381"/>
      <point x="392" y="452"/>
      <point x="392" y="495" type="qcurve" smooth="yes"/>
      <point x="392" y="539"/>
      <point x="350" y="610"/>
      <point x="279" y="652"/>
    </contour>
  </outline>
</glyph>
<glyph name="question" format="1">
  <advance width="404"/>
  <unicode hex="003F"/>
  <outline>
    <contour>
      <point x="25" y="530" type="line"/>
      <point x="25" y="591"/>
      <point x="77" y="670"/>
      <point x="159" y="708"/>
      <point x="203" y="707" type="qcurve" smooth="yes"/>
      <point x="247" y="706"/>
      <point x="326" y="665"/>
      <point x="375" y="589"/>
      <point x="375" y="536" type="qcurve" smooth="yes"/>
      <point x="375" y="481"/>
      <point x="326" y="404"/>
      <point x="293" y="365" type="qcurve" smooth="yes"/>
      <point x="278" y="348"/>
      <point x="251" y="317"/>
      <point x="229" y="282"/>
      <point x="216" y="237"/>
      <point x="216" y="206" type="qcurve" smooth="yes"/>
      <point x="216" y="192"/>
      <point x="216" y="162"/>
      <point x="216" y="133"/>
      <point x="216" y="119" type="qcurve"/>
      <point x="165" y="119" type="line"/>
      <point x="165" y="211" type="line" smooth="yes"/>
      <point x="165" y="244"/>
      <point x="178" y="296"/>
      <point x="201" y="337"/>
      <point x="228" y="372"/>
      <point x="242" y="388" type="qcurve" smooth="yes"/>
      <point x="261" y="410"/>
      <point x="297" y="451"/>
      <point x="320" y="501"/>
      <point x="320" y="533" type="qcurve" smooth="yes"/>
      <point x="320" y="573"/>
      <point x="286" y="626"/>
      <point x="232" y="653"/>
      <point x="203" y="654" type="qcurve" smooth="yes"/>
      <point x="173" y="655"/>
      <point x="117" y="629"/>
      <point x="82" y="573"/>
      <point x="82" y="530" type="qcurve"/>
    </contour>
    <contour>
      <point x="192" y="57" type="qcurve" smooth="yes"/>
      <point x="205" y="57"/>
      <point x="225" y="38"/>
      <point x="225" y="24" type="qcurve" smooth="yes"/>
      <point x="225" y="10"/>
      <point x="205" y="-9"/>
      <point x="192" y="-9" type="qcurve" smooth="yes"/>
      <point x="178" y="-9"/>
      <point x="157" y="10"/>
      <point x="157" y="24" type="qcurve" smooth="yes"/>
      <point x="157" y="38"/>
      <point x="178" y="57"/>
    </contour>
  </outline>
</glyph>
<glyph name="C" format="1">
  <advance width="422"/>
  <unicode hex="0043"/>
    <anchor name="bottom" x="211" y="0"/>
    <anchor name="top" x="211" y="735"/>
  <outline>
    <contour>
      <point x="353" y="637" type="line"/>
      <point x="325" y="648"/>
      <point x="272" y="658"/>
      <point x="246" y="658" type="qcurve" smooth="yes"/>
      <point x="173" y="658"/>
      <point x="90" y="591"/>
      <point x="90" y="512" type="qcurve" smooth="yes"/>
      <point x="90" y="185" type="line" smooth="yes"/>
      <point x="90" y="133"/>
      <point x="122" y="69"/>
      <point x="188" y="40"/>
      <point x="238" y="40" type="qcurve" smooth="yes"/>
      <point x="258" y="40"/>
      <point x="303" y="47"/>
      <point x="355" y="60"/>
      <point x="383" y="69" type="qcurve"/>
      <point x="395" y="23" type="line"/>
      <point x="310" y="-10"/>
      <point x="234" y="-10" type="qcurve" smooth="yes"/>
      <point x="218" y="-10"/>
      <point x="152" y="-4"/>
      <point x="116" y="15" type="qcurve" smooth="yes"/>
      <point x="79" y="35"/>
      <point x="34" y="120"/>
      <point x="34" y="183" type="qcurve" smooth="yes"/>
      <point x="34" y="508" type="line" smooth="yes"/>
      <point x="34" y="578"/>
      <point x="85" y="666"/>
      <point x="173" y="708"/>
      <point x="228" y="708" type="qcurve" smooth="yes"/>
      <point x="306" y="708"/>
      <point x="370" y="675" type="qcurve"/>
    </contour>
    <contour>
      <point x="211" y="0" type="move" name="bottom"/>
    </contour>
    <contour>
      <point x="211" y="735" type="move" name="top"/>
    </contour>
  </outline>
</glyph>
<glyph name="E" format="1">
  <advance width="405"/>
  <unicode hex="0045"/>
    <anchor name="tonos" x="67" y="700"/>
    <anchor name="top" x="202" y="735"/>
    <anchor name="ogonek" x="202" y="0"/>
  <outline>
    <contour>
      <point x="41" y="0" type="line"/>
      <point x="41" y="698" type="line"/>
      <point x="374" y="698" type="line"/>
      <point x="374" y="646" type="line"/>
      <point x="97" y="646" type="line"/>
      <point x="97" y="411" type="line"/>
      <point x="287" y="411" type="line"/>
      <point x="269" y="356" type="line"/>
      <point x="97" y="356" type="line"/>
      <point x="97" y="50" type="line"/>
      <point x="372" y="50" type="line"/>
      <point x="372" y="0" type="line"/>
    </contour>
    <contour>
      <point x="67" y="700" type="move" name="tonos"/>
    </contour>
    <contour>
      <point x="202" y="735" type="move" name="top"/>
    </contour>
    <contour>
      <point x="202" y="0" type="move" name="ogonek"/>
    </contour>
  </outline>
</glyph>
<glyph name="G" format="1">
  <advance width="477"/>
  <unicode hex="0047"/>
    <anchor name="bottom" x="238" y="0"/>
    <anchor name="top" x="238" y="735"/>
  <outline>
    <contour>
      <point x="353" y="636" type="line"/>
      <point x="325" y="647"/>
      <point x="272" y="657"/>
      <point x="247" y="657" type="qcurve" smooth="yes"/>
      <point x="210" y="657"/>
      <point x="153" y="641"/>
      <point x="133" y="624" type="qcurve" smooth="yes"/>
      <point x="112" y="605"/>
      <point x="90" y="549"/>
      <point x="90" y="510" type="qcurve" smooth="yes"/>
      <point x="90" y="186" type="line" smooth="yes"/>
      <point x="90" y="120"/>
      <point x="178" y="44"/>
      <point x="245" y="44" type="qcurve" smooth="yes"/>
      <point x="314" y="44"/>
      <point x="352" y="84" type="qcurve"/>
      <point x="372" y="103"/>
      <point x="392" y="154"/>
      <point x="392" y="186" type="qcurve" smooth="yes"/>
      <point x="392" y="244" type="line"/>
      <point x="263" y="244" type="line"/>
      <point x="243" y="299" type="line"/>
      <point x="445" y="299" type="line"/>
      <point x="445" y="0" type="line"/>
      <point x="394" y="0" type="line"/>
      <point x="390" y="41" type="line"/>
      <point x="372" y="24"/>
      <point x="329" y="1"/>
      <point x="278" y="-10"/>
      <point x="247" y="-10" type="qcurve" smooth="yes"/>
      <point x="202" y="-10"/>
      <point x="127" y="15"/>
      <point x="96" y="40" type="qcurve" smooth="yes"/>
      <point x="65" y="65"/>
      <point x="34" y="139"/>
      <point x="34" y="188" type="qcurve" smooth="yes"/>
      <point x="34" y="502" type="line" smooth="yes"/>
      <point x="34" y="565"/>
      <point x="78" y="656"/>
      <point x="121" y="682" type="qcurve"/>
      <point x="144" y="694"/>
      <point x="197" y="707"/>
      <point x="228" y="707" type="qcurve" smooth="yes"/>
      <point x="306" y="707"/>
      <point x="370" y="674" type="qcurve"/>
    </contour>
    <contour>
      <point x="238" y="0" type="move" name="bottom"/>
    </contour>
    <contour>
      <point x="238" y="735" type="move" name="top"/>
    </contour>
  </outline>
</glyph>
<glyph name="J" format="1">
  <advance width="206"/>
  <unicode hex="004A"/>
    <anchor name="top" x="103" y="735"/>
  <outline>
    <contour>
      <point x="165" y="118" type="line" smooth="yes"/>
      <point x="165" y="84"/>
      <point x="151" y="30"/>
      <point x="137" y="10" type="qcurve" smooth="yes"/>
      <point x="121" y="-13"/>
      <point x="72" y="-37"/>
      <point x="40" y="-37" type="qcurve"/>
      <point x="27" y="0" type="line"/>
      <point x="60" y="0"/>
      <point x="108" y="54"/>
      <point x="108" y="113" type="qcurve" smooth="yes"/>
      <point x="108" y="647" type="line"/>
      <point x="42" y="649" type="line"/>
      <point x="42" y="698" type="line"/>
      <point x="165" y="698" type="line"/>
    </contour>
    <contour>
      <point x="103" y="735" type="move" name="top"/>
    </contour>
  </outline>
</glyph>
<glyph name="N" format="1">
  <advance width="575"/>
  <unicode hex="004E"/>
    <anchor name="top" x="287" y="735"/>
    <anchor name="bottom" x="287" y="0"/>
  <outline>
    <contour>
      <point x="532" y="698" type="line"/>
      <point x="532" y="0" type="line"/>
      <point x="476" y="0" type="line"/>
      <point x="97" y="595" type="line"/>
      <point x="97" y="0" type="line"/>
      <point x="41" y="0" type="line"/>
      <point x="41" y="698" type="line"/>
      <point x="97" y="698" type="line"/>
      <point x="476" y="102" type="line"/>
      <point x="476" y="698" type="line"/>
    </contour>
    <contour>
      <point x="287" y="735" type="move" name="top"/>
    </contour>
    <contour>
      <point x="287" y="0" type="move" name="bottom"/>
    </contour>
  </outline>
</glyph>
<glyph name="P" format="1">
  <advance width="504"/>
  <unicode hex="0050"/>
  <outline>
    <contour>
      <point x="276" y="698" type="line" smooth="yes"/>
      <point x="324" y="698"/>
      <point x="397" y="675"/>
      <point x="448" y="623"/>
      <point x="474" y="536"/>
      <point x="474" y="472" type="qcurve" smooth="yes"/>
      <point x="474" y="410"/>
      <point x="449" y="323"/>
      <point x="400" y="269"/>
      <point x="326" y="244"/>
      <point x="276" y="244" type="qcurve" smooth="yes"/>
      <point x="258" y="244"/>
      <point x="216" y="244"/>
      <point x="169" y="244"/>
      <point x="121" y="244"/>
      <point x="97" y="244" type="qcurve"/>
      <point x="97" y="0" type="line"/>
      <point x="41" y="0" type="line"/>
      <point x="41" y="698" type="line"/>
    </contour>
    <contour>
      <point x="97" y="299" type="line"/>
      <point x="134" y="299"/>
      <point x="201" y="299"/>
      <point x="259" y="299"/>
      <point x="281" y="299" type="qcurve" smooth="yes"/>
      <point x="319" y="299"/>
      <point x="381" y="322"/>
      <point x="418" y="396"/>
      <point x="418" y="472" type="qcurve" smooth="yes"/>
      <point x="418" y="543"/>
      <point x="382" y="617"/>
      <point x="320" y="645"/>
      <point x="281" y="645" type="qcurve" smooth="yes"/>
      <point x="97" y="645" type="line"/>
    </contour>
  </outline>
</glyph>
<glyph name="grave" format="1">
  <advance width="266"/>
  <unicode hex="0060"/>
  <outline>
    <contour>
      <point x="113" y="715" type="qcurve"/>
      <point x="152" y="608" type="line"/>
      <point x="116" y="608" type="line"/>
      <point x="63" y="687" type="line"/>
      <point x="54" y="698"/>
      <point x="56" y="728"/>
      <point x="69" y="735" type="qcurve" smooth="yes"/>
      <point x="83" y="743"/>
      <point x="109" y="729"/>
    </contour>
  </outline>
</glyph>
<glyph name="a" format="1">
  <advance width="446"/>
  <unicode hex="0061"/>
    <anchor name="top" x="223" y="545"/>
    <anchor name="ogonek" x="222" y="0"/>
  <outline>
    <contour>
      <point x="354" y="349" type="qcurve"/>
      <point x="354" y="390"/>
      <point x="324" y="436"/>
      <point x="296" y="449" type="qcurve" smooth="yes"/>
      <point x="277" y="458"/>
      <point x="228" y="464"/>
      <point x="200" y="464" type="qcurve"/>
      <point x="202" y="507" type="line"/>
      <point x="237" y="507"/>
      <point x="308" y="498"/>
      <point x="339" y="480" type="qcurve" smooth="yes"/>
      <point x="386" y="453"/>
      <point x="410" y="353"/>
      <point x="410" y="287" type="qcurve" smooth="yes"/>
      <point x="410" y="258"/>
      <point x="410" y="201"/>
      <point x="410" y="144"/>
      <point x="410" y="86"/>
      <point x="410" y="29"/>
      <point x="410" y="0" type="qcurve"/>
      <point x="410" y="0"/>
      <point x="376" y="-3"/>
      <point x="324" y="-6"/>
      <point x="271" y="-10"/>
      <point x="252" y="-10" type="qcurve"/>
      <point x="188" y="-12"/>
      <point x="86" y="16"/>
      <point x="26" y="95"/>
      <point x="26" y="168" type="qcurve" smooth="yes"/>
      <point x="26" y="179"/>
      <point x="26" y="199"/>
      <point x="26" y="220"/>
      <point x="26" y="241"/>
      <point x="26" y="251" type="qcurve" smooth="yes"/>
      <point x="26" y="293"/>
      <point x="51" y="351"/>
      <point x="94" y="386"/>
      <point x="149" y="402"/>
      <point x="179" y="402" type="qcurve" smooth="yes"/>
      <point x="228" y="402"/>
      <point x="319" y="369"/>
    </contour>
    <contour>
      <point x="354" y="302" type="qcurve"/>
      <point x="327" y="316"/>
      <point x="268" y="339"/>
      <point x="206" y="354"/>
      <point x="174" y="354" type="qcurve" smooth="yes"/>
      <point x="156" y="354"/>
      <point x="113" y="339"/>
      <point x="81" y="294"/>
      <point x="81" y="249" type="qcurve" smooth="yes"/>
      <point x="81" y="232"/>
      <point x="81" y="190"/>
      <point x="81" y="175" type="qcurve" smooth="yes"/>
      <point x="81" y="139"/>
      <point x="96" y="86"/>
      <point x="133" y="52"/>
      <point x="198" y="36"/>
      <point x="248" y="38" type="qcurve"/>
      <point x="272" y="40"/>
      <point x="312" y="42"/>
      <point x="339" y="45"/>
      <point x="354" y="46"/>
      <point x="354" y="46" type="qcurve"/>
      <point x="354" y="68"/>
      <point x="354" y="110"/>
      <point x="354" y="153"/>
      <point x="354" y="196"/>
      <point x="354" y="238"/>
      <point x="354" y="281"/>
    </contour>
    <contour>
      <point x="223" y="545" type="move" name="top"/>
    </contour>
    <contour>
      <point x="222" y="0" type="move" name="ogonek"/>
    </contour>
  </outline>
</glyph>
<glyph name="b" format="1">
  <advance width="455"/>
  <unicode hex="0062"/>
  <outline>
    <contour>
      <point x="97" y="471" type="line"/>
      <point x="131" y="486"/>
      <point x="210" y="508"/>
      <point x="259" y="508" type="qcurve" smooth="yes"/>
      <point x="289" y="508"/>
      <point x="348" y="492"/>
      <point x="396" y="458"/>
      <point x="425" y="400"/>
      <point x="425" y="358" type="qcurve" smooth="yes"/>
      <point x="425" y="339"/>
      <point x="425" y="301"/>
      <point x="425" y="263"/>
      <point x="425" y="225"/>
      <point x="425" y="187"/>
      <point x="425" y="168" type="qcurve" smooth="yes"/>
      <point x="425" y="95"/>
      <point x="365" y="16"/>
      <point x="263" y="-12"/>
      <point x="198" y="-10" type="qcurve"/>
      <point x="180" y="-10"/>
      <point x="127" y="-6"/>
      <point x="75" y="-3"/>
      <point x="41" y="0"/>
      <point x="41" y="0" type="qcurve"/>
      <point x="41" y="698" type="line"/>
      <point x="97" y="698" type="line"/>
    </contour>
    <contour>
      <point x="97" y="46" type="qcurve"/>
      <point x="97" y="46"/>
      <point x="112" y="45"/>
      <point x="139" y="42"/>
      <point x="179" y="40"/>
      <point x="203" y="38" type="qcurve"/>
      <point x="253" y="36"/>
      <point x="318" y="52"/>
      <point x="355" y="86"/>
      <point x="370" y="139"/>
      <point x="370" y="175" type="qcurve" smooth="yes"/>
      <point x="370" y="183"/>
      <point x="370" y="233"/>
      <point x="370" y="295"/>
      <point x="370" y="346"/>
      <point x="370" y="354" type="qcurve" smooth="yes"/>
      <point x="370" y="400"/>
      <point x="332" y="446"/>
      <point x="282" y="461"/>
      <point x="263" y="461" type="qcurve" smooth="yes"/>
      <point x="215" y="461"/>
      <point x="138" y="439"/>
      <point x="97" y="422" type="qcurve"/>
      <point x="97" y="395"/>
      <point x="97" y="342"/>
      <point x="97" y="288"/>
      <point x="97" y="234"/>
      <point x="97" y="181"/>
      <point x="97" y="127"/>
      <point x="97" y="73"/>
    </contour>
  </outline>
</glyph>
<glyph name="d" format="1">
  <advance width="456"/>
  <unicode hex="0064"/>
    <anchor name="top" x="228" y="735"/>
  <outline>
    <contour>
      <point x="413" y="0" type="line"/>
      <point x="413" y="0"/>
      <point x="379" y="-3"/>
      <point x="327" y="-6"/>
      <point x="275" y="-10"/>
      <point x="257" y="-10" type="qcurve"/>
      <point x="193" y="-12"/>
      <point x="89" y="16"/>
      <point x="29" y="95"/>
      <point x="29" y="168" type="qcurve" smooth="yes"/>
      <point x="29" y="358" type="line" smooth="yes"/>
      <point x="29" y="414"/>
      <point x="79" y="480"/>
      <point x="155" y="508"/>
      <point x="195" y="508" type="qcurve" smooth="yes"/>
      <point x="244" y="508"/>
      <point x="324" y="486"/>
      <point x="358" y="471" type="qcurve"/>
      <point x="358" y="698" type="line"/>
      <point x="413" y="698" type="line"/>
    </contour>
    <contour>
      <point x="358" y="422" type="line"/>
      <point x="318" y="439"/>
      <point x="239" y="461"/>
      <point x="191" y="461" type="qcurve" smooth="yes"/>
      <point x="173" y="461"/>
      <point x="122" y="446"/>
      <point x="84" y="400"/>
      <point x="84" y="354" type="qcurve" smooth="yes"/>
      <point x="84" y="175" type="line" smooth="yes"/>
      <point x="84" y="139"/>
      <point x="99" y="86"/>
      <point x="137" y="52"/>
      <point x="202" y="36"/>
      <point x="252" y="38" type="qcurve"/>
      <point x="276" y="40"/>
      <point x="315" y="42"/>
      <point x="343" y="45"/>
      <point x="358" y="46"/>
      <point x="358" y="46" type="qcurve"/>
    </contour>
    <contour>
      <point x="228" y="735" type="move" name="top"/>
    </contour>
  </outline>
</glyph>
<glyph name="g" format="1">
  <advance width="440"/>
  <unicode hex="0067"/>
    <anchor name="top" x="220" y="545"/>
  <outline>
    <contour>
      <point x="400" y="-64" type="line" smooth="yes"/>
      <point x="400" y="-124"/>
      <point x="349" y="-192"/>
      <point x="292" y="-210" type="qcurve"/>
      <point x="276" y="-167" type="line"/>
      <point x="298" y="-158"/>
      <point x="328" y="-130"/>
      <point x="343" y="-89"/>
      <point x="343" y="-63" type="qcurve" smooth="yes"/>
      <point x="343" y="61" type="line"/>
      <point x="332" y="41"/>
      <point x="288" y="7"/>
      <point x="232" y="-12"/>
      <point x="202" y="-12" type="qcurve" smooth="yes"/>
      <point x="118" y="-12"/>
      <point x="31" y="84"/>
      <point x="31" y="175" type="qcurve" smooth="yes"/>
      <point x="31" y="345" type="line" smooth="yes"/>
      <point x="31" y="424"/>
      <point x="119" y="512"/>
      <point x="201" y="508" type="qcurve" smooth="yes"/>
      <point x="225" y="507"/>
      <point x="274" y="494"/>
      <point x="321" y="469"/>
      <point x="343" y="451" type="qcurve"/>
      <point x="343" y="498" type="line"/>
      <point x="400" y="498" type="line"/>
    </contour>
    <contour>
      <point x="343" y="392" type="line"/>
      <point x="329" y="413"/>
      <point x="284" y="440"/>
      <point x="235" y="456"/>
      <point x="213" y="458" type="qcurve" smooth="yes"/>
      <point x="182" y="461"/>
      <point x="124" y="440"/>
      <point x="87" y="387"/>
      <point x="87" y="342" type="qcurve" smooth="yes"/>
      <point x="87" y="166" type="line" smooth="yes"/>
      <point x="87" y="103"/>
      <point x="148" y="40"/>
      <point x="205" y="40" type="qcurve" smooth="yes"/>
      <point x="243" y="40"/>
      <point x="306" y="71"/>
      <point x="343" y="131"/>
      <point x="343" y="173" type="qcurve" smooth="yes"/>
    </contour>
    <contour>
      <point x="220" y="545" type="move" name="top"/>
    </contour>
  </outline>
</glyph>
<glyph name="n" format="1">
  <advance width="442"/>
  <unicode hex="006E"/>
    <anchor name="top" x="221" y="545"/>
    <anchor name="bottom" x="221" y="0"/>
  <outline>
    <contour>
      <point x="351" y="341" type="line" smooth="yes"/>
      <point x="351" y="386"/>
      <point x="313" y="437"/>
      <point x="253" y="458"/>
      <point x="221" y="458" type="qcurve" smooth="yes"/>
      <point x="187" y="458"/>
      <point x="125" y="441"/>
      <point x="94" y="424" type="qcurve"/>
      <point x="94" y="0" type="line"/>
      <point x="38" y="0" type="line"/>
      <point x="38" y="499" type="line"/>
      <point x="94" y="499" type="line"/>
      <point x="94" y="465" type="line"/>
      <point x="123" y="485"/>
      <point x="195" y="508"/>
      <point x="232" y="508" type="qcurve" smooth="yes"/>
      <point x="273" y="508"/>
      <point x="338" y="486"/>
      <point x="383" y="444"/>
      <point x="406" y="383"/>
      <point x="406" y="344" type="qcurve" smooth="yes"/>
      <point x="406" y="0" type="line"/>
      <point x="351" y="0" type="line"/>
    </contour>
    <contour>
      <point x="221" y="545" type="move" name="top"/>
    </contour>
    <contour>
      <point x="221" y="0" type="move" name="bottom"/>
    </contour>
  </outline>
</glyph>
<glyph name="o" format="1">
  <advance width="429"/>
  <unicode hex="006F"/>
    <anchor name="top" x="214" y="545"/>
    <anchor name="tonos" x="214" y="545"/>
  <outline>
    <contour>
      <point x="398" y="184" type="line" smooth="yes"/>
      <point x="398" y="99"/>
      <point x="309" y="-10"/>
      <point x="217" y="-10" type="qcurve" smooth="yes"/>
      <point x="155" y="-10"/>
      <point x="71" y="42"/>
      <point x="29" y="130"/>
      <point x="29" y="184" type="qcurve" smooth="yes"/>
      <point x="29" y="315" type="line" smooth="yes"/>
      <point x="29" y="410"/>
      <point x="126" y="510"/>
      <point x="215" y="510" type="qcurve" smooth="yes"/>
      <point x="304" y="510"/>
      <point x="398" y="406"/>
      <point x="398" y="315" type="qcurve" smooth="yes"/>
    </contour>
    <contour>
      <point x="342" y="315" type="line" smooth="yes"/>
      <point x="342" y="387"/>
      <point x="282" y="460"/>
      <point x="217" y="460" type="qcurve" smooth="yes"/>
      <point x="151" y="460"/>
      <point x="85" y="387"/>
      <point x="85" y="315" type="qcurve" smooth="yes"/>
      <point x="85" y="174" type="line" smooth="yes"/>
      <point x="85" y="134"/>
      <point x="117" y="74"/>
      <point x="177" y="40"/>
      <point x="217" y="40" type="qcurve" smooth="yes"/>
      <point x="259" y="40"/>
      <point x="314" y="73"/>
      <point x="342" y="133"/>
      <point x="342" y="174" type="qcurve" smooth="yes"/>
    </contour>
    <contour>
      <point x="214" y="545" type="move" name="top"/>
    </contour>
    <contour>
      <point x="214" y="545" type="move" name="tonos"/>
    </contour>
  </outline>
</glyph>
<glyph name="u" format="1">
  <advance width="444"/>
  <unicode hex="0075"/>
    <anchor name="top" x="222" y="545"/>
    <anchor name="ogonek" x="222" y="0"/>
  <outline>
    <contour>
      <point x="348" y="48" type="line"/>
      <point x="323" y="19"/>
      <point x="247" y="-10"/>
      <point x="209" y="-10" type="qcurve" smooth="yes"/>
      <point x="167" y="-10"/>
      <point x="103" y="10"/>
      <point x="58" y="51"/>
      <point x="35" y="114"/>
      <point x="35" y="156" type="qcurve" smooth="yes"/>
      <point x="35" y="499" type="line"/>
      <point x="91" y="499" type="line"/>
      <point x="91" y="159" type="line" smooth="yes"/>
      <point x="91" y="113"/>
      <point x="129" y="64"/>
      <point x="189" y="44"/>
      <point x="221" y="44" type="qcurve" smooth="yes"/>
      <point x="257" y="44"/>
      <point x="314" y="78"/>
      <point x="348" y="137"/>
      <point x="348" y="172" type="qcurve" smooth="yes"/>
      <point x="348" y="499" type="line"/>
      <point x="404" y="499" type="line"/>
      <point x="404" y="0" type="line"/>
      <point x="348" y="0" type="line"/>
    </contour>
    <contour>
      <point x="222" y="545" type="move" name="top"/>
    </contour>
    <contour>
      <point x="222" y="0" type="move" name="ogonek"/>
    </contour>
  </outline>
</glyph>
<glyph name="braceleft" format="1">
  <advance width="257"/>
  <unicode hex="007B"/>
  <outline>
    <contour>
      <point x="162" y="515" type="line" smooth="yes"/>
      <point x="162" y="473"/>
      <point x="142" y="391"/>
      <point x="95" y="352" type="qcurve"/>
      <point x="142" y="313"/>
      <point x="162" y="231"/>
      <point x="162" y="189" type="qcurve" smooth="yes"/>
      <point x="162" y="76" type="line" smooth="yes"/>
      <point x="162" y="43"/>
      <point x="177" y="-6"/>
      <point x="200" y="-40"/>
      <point x="226" y="-61"/>
      <point x="238" y="-67" type="qcurve"/>
      <point x="215" y="-117" type="line"/>
      <point x="213" y="-116"/>
      <point x="179" y="-100"/>
      <point x="137" y="-59"/>
      <point x="105" y="16"/>
      <point x="105" y="76" type="qcurve" smooth="yes"/>
      <point x="105" y="189" type="line" smooth="yes"/>
      <point x="105" y="231"/>
      <point x="83" y="307"/>
      <point x="36" y="344" type="qcurve" smooth="yes"/>
      <point x="25" y="352" type="line"/>
      <point x="36" y="360" type="line" smooth="yes"/>
      <point x="83" y="396"/>
      <point x="105" y="473"/>
      <point x="105" y="515" type="qcurve" smooth="yes"/>
      <point x="105" y="628" type="line" smooth="yes"/>
      <point x="105" y="688"/>
      <point x="137" y="763"/>
      <point x="180" y="804"/>
      <point x="214" y="819"/>
      <point x="215" y="820" type="qcurve"/>
      <point x="237" y="772" type="line"/>
      <point x="226" y="766"/>
      <point x="200" y="745"/>
      <point x="177" y="711"/>
      <point x="162" y="661"/>
      <point x="162" y="628" type="qcurve" smooth="yes"/>
    </contour>
  </outline>
</glyph>
<glyph name="exclamdown" format="1">
  <advance width="147"/>
  <unicode hex="00A1"/>
  <outline>
    <contour>
      <point x="106" y="36" type="line"/>
      <point x="106" y="0"/>
      <point x="73" y="0" type="qcurve" smooth="yes"/>
      <point x="57" y="0"/>
      <point x="40" y="18"/>
      <point x="40" y="37" type="qcurve"/>
      <point x="50" y="588" type="line"/>
      <point x="97" y="588" type="line"/>
    </contour>
    <contour>
      <point x="106" y="674" type="qcurve" smooth="yes"/>
      <point x="106" y="661"/>
      <point x="87" y="641"/>
      <point x="73" y="641" type="qcurve" smooth="yes"/>
      <point x="59" y="641"/>
      <point x="39" y="661"/>
      <point x="39" y="674" type="qcurve" smooth="yes"/>
      <point x="39" y="688"/>
      <point x="59" y="707"/>
      <point x="73" y="707" type="qcurve" smooth="yes"/>
      <point x="87" y="707"/>
      <point x="106" y="688"/>
    </contour>
  </outline>
</glyph>
<glyph name="copyright" format="1">
  <advance width="694"/>
  <unicode hex="00A9"/>
  <outline>
    <contour>
      <point x="662" y="187" type="line" smooth="yes"/>
      <point x="662" y="102"/>
      <point x="581" y="-12"/>
      <point x="438" y="-68"/>
      <point x="346" y="-69" type="qcurve"/>
      <point x="255" y="-68"/>
      <point x="112" y="-12"/>
      <point x="31" y="102"/>
      <point x="31" y="187" type="qcurve" smooth="yes"/>
      <point x="31" y="326" type="line" smooth="yes"/>
      <point x="31" y="411"/>
      <point x="112" y="524"/>
      <point x="255" y="582"/>
      <point x="346" y="582" type="qcurve" smooth="yes"/>
      <point x="438" y="582"/>
      <point x="581" y="524"/>
      <point x="662" y="411"/>
      <point x="662" y="326" type="qcurve" smooth="yes"/>
    </contour>
    <contour>
      <point x="603" y="301" type="line" smooth="yes"/>
      <point x="603" y="383"/>
      <point x="547" y="482"/>
      <point x="434" y="527"/>
      <point x="346" y="528" type="qcurve"/>
      <point x="259" y="527"/>
      <point x="145" y="482"/>
      <point x="90" y="383"/>
      <point x="90" y="301" type="qcurve" smooth="yes"/>
      <point x="90" y="211" type="line" smooth="yes"/>
      <point x="90" y="130"/>
      <point x="145" y="31"/>
      <point x="259" y="-14"/>
      <point x="346" y="-15" type="qcurve"/>
      <point x="434" y="-14"/>
      <point x="547" y="31"/>
      <point x="603" y="130"/>
      <point x="603" y="211" type="qcurve" smooth="yes"/>
    </contour>
    <contour>
      <point x="485" y="383" type="line"/>
      <point x="467" y="390"/>
      <point x="430" y="399"/>
      <point x="394" y="404"/>
      <point x="377" y="404" type="qcurve" smooth="yes"/>
      <point x="344" y="404"/>
      <point x="293" y="390"/>
      <point x="274" y="376" type="qcurve" smooth="yes"/>
      <point x="249" y="358"/>
      <point x="223" y="296"/>
      <point x="223" y="254" type="qcurve" smooth="yes"/>
      <point x="223" y="215"/>
      <point x="243" y="152"/>
      <point x="268" y="133" type="qcurve" smooth="yes"/>
      <point x="285" y="121"/>
      <point x="335" y="108"/>
      <point x="369" y="108" type="qcurve" smooth="yes"/>
      <point x="384" y="108"/>
      <point x="417" y="112"/>
      <point x="453" y="119"/>
      <point x="493" y="130"/>
      <point x="514" y="137" type="qcurve"/>
      <point x="526" y="90" type="line"/>
      <point x="484" y="74"/>
      <point x="403" y="58"/>
      <point x="364" y="58" type="qcurve" smooth="yes"/>
      <point x="348" y="58"/>
      <point x="284" y="64"/>
      <point x="247" y="82" type="qcurve"/>
      <point x="211" y="103"/>
      <point x="166" y="186"/>
      <point x="166" y="249" type="qcurve" smooth="yes"/>
      <point x="166" y="315"/>
      <point x="210" y="402"/>
      <point x="253" y="428" type="qcurve" smooth="yes"/>
      <point x="275" y="442"/>
      <point x="329" y="453"/>
      <point x="359" y="453" type="qcurve" smooth="yes"/>
      <point x="397" y="453"/>
      <point x="470" y="437"/>
      <point x="501" y="420" type="qcurve"/>
    </contour>
  </outline>
</glyph>
<glyph name="registered" format="1">
  <advance width="694"/>
  <unicode hex="00AE"/>
  <outline>
    <contour>
      <point x="662" y="187" type="line" smooth="yes"/>
      <point x="662" y="102"/>
      <point x="581" y="-12"/>
      <point x="438" y="-68"/>
      <point x="346" y="-69" type="qcurve"/>
      <point x="255" y="-68"/>
      <point x="112" y="-12"/>
      <point x="31" y="102"/>
      <point x="31" y="187" type="qcurve" smooth="yes"/>
      <point x="31" y="326" type="line" smooth="yes"/>
      <point x="31" y="411"/>
      <point x="112" y="524"/>
      <point x="255" y="582"/>
      <point x="346" y="582" type="qcurve" smooth="yes"/>
      <point x="438" y="582"/>
      <point x="581" y="524"/>
      <point x="662" y="411"/>
      <point x="662" y="326" type="qcurve" smooth="yes"/>
    </contour>
    <contour>
      <point x="601" y="301" type="line" smooth="yes"/>
      <point x="601" y="383"/>
      <point x="546" y="482"/>
      <point x="434" y="527"/>
      <point x="346" y="528" type="qcurve"/>
      <point x="259" y="527"/>
      <point x="145" y="482"/>
      <point x="90" y="383"/>
      <point x="90" y="301" type="qcurve" smooth="yes"/>
      <point x="90" y="211" type="line" smooth="yes"/>
      <point x="90" y="130"/>
      <point x="145" y="31"/>
      <point x="259" y="-14"/>
      <point x="346" y="-15" type="qcurve"/>
      <point x="434" y="-14"/>
      <point x="546" y="31"/>
      <point x="601" y="130"/>
      <point x="601" y="211" type="qcurve" smooth="yes"/>
    </contour>
    <contour>
      <point x="384" y="442" type="line" smooth="yes"/>
      <point x="404" y="442"/>
      <point x="448" y="434"/>
      <point x="488" y="408"/>
      <point x="513" y="356"/>
      <point x="514" y="311" type="qcurve" smooth="yes"/>
      <point x="515" y="250"/>
      <point x="469" y="194"/>
      <point x="440" y="185" type="qcurve"/>
      <point x="503" y="59" type="line"/>
      <point x="439" y="59" type="line"/>
      <point x="382" y="176" type="line"/>
      <point x="233" y="176" type="line"/>
      <point x="233" y="59" type="line"/>
      <point x="180" y="59" type="line"/>
      <point x="180" y="442" type="line"/>
    </contour>
    <contour>
      <point x="387" y="232" type="line" smooth="yes"/>
      <point x="425" y="232"/>
      <point x="462" y="270"/>
      <point x="462" y="310" type="qcurve" smooth="yes"/>
      <point x="462" y="351"/>
      <point x="427" y="388"/>
      <point x="387" y="388" type="qcurve" smooth="yes"/>
      <point x="233" y="388" type="line"/>
      <point x="233" y="232" type="line"/>
    </contour>
  </outline>
</glyph>
<glyph name="cedilla" format="1">
  <advance width="266"/>
  <unicode hex="00B8"/>
  <outline>
    <contour>
      <point x="165" y="0" type="line"/>
      <point x="139" y="-44" type="line"/>
      <point x="145" y="-43"/>
      <point x="158" y="-43"/>
      <point x="165" y="-42" type="qcurve" smooth="yes"/>
      <point x="198" y="-38"/>
      <point x="245" y="-65"/>
      <point x="270" y="-110"/>
      <point x="270" y="-135" type="qcurve"/>
      <point x="271" y="-172"/>
      <point x="214" y="-233"/>
      <point x="155" y="-233" type="qcurve" smooth="yes"/>
      <point x="132" y="-233"/>
      <point x="86" y="-227"/>
      <point x="56" y="-221"/>
      <point x="54" y="-221" type="qcurve"/>
      <point x="58" y="-207"/>
      <point x="60" y="-197"/>
      <point x="62" y="-187"/>
      <point x="66" y="-173" type="qcurve"/>
      <point x="80" y="-175"/>
      <point x="108" y="-181"/>
      <point x="136" y="-184"/>
      <point x="149" y="-184" type="qcurve" smooth="yes"/>
      <point x="169" y="-184"/>
      <point x="201" y="-176"/>
      <point x="220" y="-153"/>
      <point x="220" y="-133" type="qcurve" smooth="yes"/>
      <point x="220" y="-107"/>
      <point x="188" y="-91"/>
      <point x="162" y="-91" type="qcurve"/>
      <point x="146" y="-92"/>
      <point x="108" y="-96"/>
      <point x="88" y="-98" type="qcurve"/>
      <point x="75" y="-69" type="line"/>
      <point x="115" y="0" type="line"/>
    </contour>
  </outline>
</glyph>
<glyph name="questiondown" format="1">
  <advance width="408"/>
  <unicode hex="00BF"/>
  <outline>
    <contour>
      <point x="378" y="161" type="line"/>
      <point x="378" y="100"/>
      <point x="326" y="21"/>
      <point x="245" y="-16"/>
      <point x="201" y="-15" type="qcurve" smooth="yes"/>
      <point x="157" y="-14"/>
      <point x="78" y="26"/>
      <point x="29" y="102"/>
      <point x="29" y="155" type="qcurve" smooth="yes"/>
      <point x="29" y="211"/>
      <point x="78" y="288"/>
      <point x="111" y="326" type="qcurve" smooth="yes"/>
      <point x="126" y="343"/>
      <point x="153" y="374"/>
      <point x="174" y="409"/>
      <point x="187" y="454"/>
      <point x="187" y="485" type="qcurve" smooth="yes"/>
      <point x="187" y="500"/>
      <point x="187" y="529"/>
      <point x="187" y="558"/>
      <point x="187" y="572" type="qcurve"/>
      <point x="239" y="572" type="line"/>
      <point x="239" y="480" type="line" smooth="yes"/>
      <point x="239" y="447"/>
      <point x="226" y="396"/>
      <point x="203" y="353"/>
      <point x="176" y="318"/>
      <point x="162" y="302" type="qcurve" smooth="yes"/>
      <point x="143" y="281"/>
      <point x="107" y="240"/>
      <point x="84" y="191"/>
      <point x="84" y="157" type="qcurve" smooth="yes"/>
      <point x="84" y="119"/>
      <point x="118" y="65"/>
      <point x="172" y="38"/>
      <point x="201" y="37" type="qcurve" smooth="yes"/>
      <point x="232" y="36"/>
      <point x="287" y="63"/>
      <point x="322" y="118"/>
      <point x="322" y="161" type="qcurve"/>
    </contour>
    <contour>
      <point x="212" y="701" type="qcurve" smooth="yes"/>
      <point x="226" y="701"/>
      <point x="246" y="681"/>
      <point x="246" y="667" type="qcurve" smooth="yes"/>
      <point x="246" y="653"/>
      <point x="226" y="634"/>
      <point x="212" y="634" type="qcurve" smooth="yes"/>
      <point x="199" y="634"/>
      <point x="179" y="653"/>
      <point x="179" y="667" type="qcurve" smooth="yes"/>
      <point x="179" y="681"/>
      <point x="199" y="701"/>
    </contour>
  </outline>
</glyph>
<glyph name="Thorn" format="1">
  <advance width="430"/>
  <unicode hex="00DE"/>
  <outline>
    <contour>
      <point x="400" y="289" type="line" smooth="yes"/>
      <point x="400" y="216"/>
      <point x="340" y="135"/>
      <point x="288" y="118" type="qcurve" smooth="yes"/>
      <point x="248" y="105"/>
      <point x="144" y="106"/>
      <point x="97" y="118" type="qcurve"/>
      <point x="97" y="0" type="line"/>
      <point x="41" y="0" type="line"/>
      <point x="41" y="698" type="line"/>
      <point x="97" y="698" type="line"/>
      <point x="97" y="599" type="line"/>
      <point x="137" y="616"/>
      <point x="225" y="628"/>
      <point x="263" y="620" type="qcurve" smooth="yes"/>
      <point x="296" y="613"/>
      <point x="353" y="575"/>
      <point x="372" y="542" type="qcurve" smooth="yes"/>
      <point x="386" y="518"/>
      <point x="399" y="468"/>
      <point x="400" y="435" type="qcurve"/>
    </contour>
    <contour>
      <point x="253" y="570" type="qcurve" smooth="yes"/>
      <point x="233" y="576"/>
      <point x="177" y="572"/>
      <point x="120" y="558"/>
      <point x="97" y="547" type="qcurve"/>
      <point x="97" y="169" type="line"/>
      <point x="105" y="168"/>
      <point x="146" y="160"/>
      <point x="200" y="156"/>
      <point x="254" y="159"/>
      <point x="276" y="168" type="qcurve" smooth="yes"/>
      <point x="315" y="183"/>
      <point x="346" y="251"/>
      <point x="346" y="301" type="qcurve" smooth="yes"/>
      <point x="346" y="420" type="line" smooth="yes"/>
      <point x="346" y="448"/>
      <point x="335" y="492"/>
      <point x="327" y="510" type="qcurve"/>
      <point x="314" y="534"/>
      <point x="276" y="564"/>
    </contour>
  </outline>
</glyph>
<glyph name="germandbls" format="1">
  <advance width="464"/>
  <unicode hex="00DF"/>
  <outline>
    <contour>
      <point x="95" y="0" type="line"/>
      <point x="81" y="0"/>
      <point x="53" y="0"/>
      <point x="39" y="0" type="qcurve"/>
      <point x="39" y="536" type="line" smooth="yes"/>
      <point x="39" y="587"/>
      <point x="70" y="660"/>
      <point x="130" y="698"/>
      <point x="173" y="698" type="qcurve"/>
      <point x="215" y="701"/>
      <point x="272" y="663"/>
      <point x="303" y="603"/>
      <point x="304" y="570" type="qcurve"/>
      <point x="306" y="542"/>
      <point x="288" y="492"/>
      <point x="268" y="475" type="qcurve"/>
      <point x="268" y="475"/>
      <point x="253" y="475"/>
      <point x="238" y="475"/>
      <point x="238" y="475" type="qcurve"/>
      <point x="232" y="466"/>
      <point x="228" y="448"/>
      <point x="229" y="439" type="qcurve" smooth="yes"/>
      <point x="232" y="420"/>
      <point x="261" y="382"/>
      <point x="304" y="344"/>
      <point x="327" y="323" type="qcurve" smooth="yes"/>
      <point x="355" y="299"/>
      <point x="405" y="244"/>
      <point x="438" y="180"/>
      <point x="438" y="141" type="qcurve" smooth="yes"/>
      <point x="438" y="91"/>
      <point x="394" y="24"/>
      <point x="323" y="-9"/>
      <point x="282" y="-11" type="qcurve" smooth="yes"/>
      <point x="255" y="-12"/>
      <point x="202" y="-2"/>
      <point x="153" y="20"/>
      <point x="133" y="36" type="qcurve"/>
      <point x="141" y="49"/>
      <point x="156" y="72"/>
      <point x="163" y="85" type="qcurve"/>
      <point x="178" y="71"/>
      <point x="214" y="52"/>
      <point x="254" y="43"/>
      <point x="273" y="43" type="qcurve"/>
      <point x="301" y="44"/>
      <point x="350" y="66"/>
      <point x="380" y="110"/>
      <point x="380" y="143" type="qcurve" smooth="yes"/>
      <point x="380" y="174"/>
      <point x="350" y="225"/>
      <point x="303" y="272"/>
      <point x="277" y="294" type="qcurve" smooth="yes"/>
      <point x="259" y="310"/>
      <point x="223" y="343"/>
      <point x="193" y="377"/>
      <point x="174" y="413"/>
      <point x="172" y="433" type="qcurve" smooth="yes"/>
      <point x="171" y="450"/>
      <point x="178" y="487"/>
      <point x="189" y="506" type="qcurve"/>
      <point x="223" y="506"/>
      <point x="251" y="549"/>
      <point x="249" y="575" type="qcurve" smooth="yes"/>
      <point x="248" y="593"/>
      <point x="230" y="625"/>
      <point x="200" y="645"/>
      <point x="178" y="645" type="qcurve" smooth="yes"/>
      <point x="95" y="645"/>
      <point x="95" y="539" type="qcurve" smooth="yes"/>
    </contour>
  </outline>
</glyph>
<glyph name="eth" format="1">
  <advance width="424"/>
  <unicode hex="00F0"/>
  <outline>
    <contour>
      <point x="182" y="670" type="qcurve"/>
      <point x="189" y="699" type="line"/>
      <point x="288" y="686"/>
      <point x="397" y="559"/>
      <point x="397" y="469" type="qcurve" smooth="yes"/>
      <point x="397" y="187" type="line" smooth="yes"/>
      <point x="397" y="92"/>
      <point x="300" y="-9"/>
      <point x="211" y="-9" type="qcurve" smooth="yes"/>
      <point x="122" y="-9"/>
      <point x="28" y="96"/>
      <point x="28" y="187" type="qcurve" smooth="yes"/>
      <point x="28" y="245" type="line" smooth="yes"/>
      <point x="28" y="337"/>
      <point x="115" y="433"/>
      <point x="197" y="433" type="qcurve" smooth="yes"/>
      <point x="228" y="433"/>
      <point x="285" y="414"/>
      <point x="329" y="380"/>
      <point x="340" y="359" type="qcurve"/>
      <point x="340" y="479" type="line" smooth="yes"/>
      <point x="340" y="534"/>
      <point x="301" y="605"/>
      <point x="246" y="647"/>
      <point x="195" y="667"/>
    </contour>
    <contour>
      <point x="84" y="253" type="qcurve" smooth="yes"/>
      <point x="84" y="187" type="line" smooth="yes"/>
      <point x="84" y="114"/>
      <point x="145" y="43"/>
      <point x="208" y="43" type="qcurve" smooth="yes"/>
      <point x="274" y="43"/>
      <point x="340" y="114"/>
      <point x="340" y="187" type="qcurve" smooth="yes"/>
      <point x="340" y="248" type="line" smooth="yes"/>
      <point x="340" y="291"/>
      <point x="303" y="349"/>
      <point x="240" y="380"/>
      <point x="202" y="380" type="qcurve" smooth="yes"/>
      <point x="145" y="380"/>
      <point x="84" y="316"/>
    </contour>
    <contour>
      <point x="377" y="673" type="line"/>
      <point x="198" y="494" type="line"/>
      <point x="170" y="522" type="line"/>
      <point x="349" y="701" type="line"/>
    </contour>
  </outline>
</glyph>
<glyph name="divide" format="1">
  <advance width="378"/>
  <unicode hex="00F7"/>
  <outline>
    <contour>
      <point x="28" y="355" type="line"/>
      <point x="28" y="409" type="line"/>
      <point x="347" y="409" type="line"/>
      <point x="347" y="355" type="line"/>
    </contour>
    <contour>
      <point x="188" y="544" type="qcurve" smooth="yes"/>
      <point x="202" y="544"/>
      <point x="222" y="524"/>
      <point x="222" y="510" type="qcurve" smooth="yes"/>
      <point x="222" y="497"/>
      <point x="202" y="477"/>
      <point x="188" y="477" type="qcurve" smooth="yes"/>
      <point x="174" y="477"/>
      <point x="155" y="497"/>
      <point x="155" y="510" type="qcurve" smooth="yes"/>
      <point x="155" y="524"/>
      <point x="174" y="544"/>
    </contour>
    <contour>
      <point x="188" y="287" type="qcurve" smooth="yes"/>
      <point x="202" y="287"/>
      <point x="222" y="268"/>
      <point x="222" y="254" type="qcurve" smooth="yes"/>
      <point x="222" y="240"/>
      <point x="202" y="221"/>
      <point x="188" y="221" type="qcurve" smooth="yes"/>
      <point x="174" y="221"/>
      <point x="155" y="240"/>
      <point x="155" y="254" type="qcurve" smooth="yes"/>
      <point x="155" y="268"/>
      <point x="174" y="287"/>
    </contour>
  </outline>
</glyph>
<glyph name="hbar" format="1">
  <advance width="471"/>
  <unicode hex="0127"/>
  <outline>
    <contour>
      <point x="261" y="562" type="line"/>
      <point x="26" y="562" type="line"/>
      <point x="26" y="615" type="line"/>
      <point x="261" y="615" type="line"/>
    </contour>
    <contour>
      <point x="127" y="465" type="line"/>
      <point x="156" y="485"/>
      <point x="229" y="508"/>
      <point x="266" y="508" type="qcurve" smooth="yes"/>
      <point x="307" y="508"/>
      <point x="372" y="487"/>
      <point x="417" y="445"/>
      <point x="440" y="384"/>
      <point x="440" y="345" type="qcurve" smooth="yes"/>
      <point x="440" y="0" type="line"/>
      <point x="384" y="0" type="line"/>
      <point x="384" y="342" type="line" smooth="yes"/>
      <point x="384" y="387"/>
      <point x="346" y="438"/>
      <point x="287" y="458"/>
      <point x="255" y="458" type="qcurve" smooth="yes"/>
      <point x="221" y="458"/>
      <point x="158" y="441"/>
      <point x="127" y="424" type="qcurve"/>
      <point x="127" y="0" type="line"/>
      <point x="71" y="0" type="line"/>
      <point x="71" y="698" type="line"/>
      <point x="127" y="698" type="line"/>
    </contour>
  </outline>
</glyph>
<glyph name="oe" format="1">
  <advance width="739"/>
  <unicode hex="0153"/>
  <outline>
    <contour>
      <point x="405" y="133" type="line" smooth="yes"/>
      <point x="405" y="108"/>
      <point x="419" y="74"/>
      <point x="431" y="63" type="qcurve" smooth="yes"/>
      <point x="450" y="43"/>
      <point x="502" y="36"/>
      <point x="516" y="36" type="qcurve" smooth="yes"/>
      <point x="553" y="36"/>
      <point x="624" y="58"/>
      <point x="661" y="78" type="qcurve"/>
      <point x="683" y="35" type="line"/>
      <point x="646" y="12"/>
      <point x="559" y="-11"/>
      <point x="521" y="-12" type="qcurve"/>
      <point x="506" y="-12"/>
      <point x="460" y="-9"/>
      <point x="411" y="6"/>
      <point x="390" y="24" type="qcurve" smooth="yes"/>
      <point x="383" y="31"/>
      <point x="368" y="48"/>
      <point x="363" y="58" type="qcurve"/>
      <point x="342" y="26"/>
      <point x="269" y="-10"/>
      <point x="217" y="-10" type="qcurve" smooth="yes"/>
      <point x="155" y="-10"/>
      <point x="71" y="42"/>
      <point x="29" y="130"/>
      <point x="29" y="184" type="qcurve" smooth="yes"/>
      <point x="29" y="315" type="line" smooth="yes"/>
      <point x="29" y="410"/>
      <point x="126" y="510"/>
      <point x="215" y="510" type="qcurve" smooth="yes"/>
      <point x="271" y="510"/>
      <point x="349" y="468"/>
      <point x="371" y="429" type="qcurve"/>
      <point x="379" y="443"/>
      <point x="398" y="464"/>
      <point x="411" y="473" type="qcurve" smooth="yes"/>
      <point x="458" y="508"/>
      <point x="533" y="508" type="qcurve" smooth="yes"/>
      <point x="619" y="508"/>
      <point x="666" y="461" type="qcurve"/>
      <point x="686" y="439"/>
      <point x="709" y="379"/>
      <point x="709" y="341" type="qcurve" smooth="yes"/>
      <point x="709" y="211" type="line"/>
      <point x="405" y="195" type="line"/>
    </contour>
    <contour>
      <point x="342" y="315" type="line" smooth="yes"/>
      <point x="342" y="387"/>
      <point x="282" y="460"/>
      <point x="217" y="460" type="qcurve" smooth="yes"/>
      <point x="151" y="460"/>
      <point x="85" y="387"/>
      <point x="85" y="315" type="qcurve" smooth="yes"/>
      <point x="85" y="174" type="line" smooth="yes"/>
      <point x="85" y="134"/>
      <point x="117" y="74"/>
      <point x="177" y="40"/>
      <point x="217" y="40" type="qcurve" smooth="yes"/>
      <point x="259" y="40"/>
      <point x="314" y="73"/>
      <point x="342" y="133"/>
      <point x="342" y="174" type="qcurve" smooth="yes"/>
    </contour>
    <contour>
      <point x="653" y="348" type="line" smooth="yes"/>
      <point x="653" y="370"/>
      <point x="641" y="404"/>
      <point x="630" y="418" type="qcurve" smooth="yes"/>
      <point x="607" y="445"/>
      <point x="557" y="461"/>
      <point x="532" y="461" type="qcurve" smooth="yes"/>
      <point x="504" y="461"/>
      <point x="456" y="445"/>
      <point x="439" y="429" type="qcurve" smooth="yes"/>
      <point x="423" y="413"/>
      <point x="405" y="368"/>
      <point x="405" y="337" type="qcurve" smooth="yes"/>
      <point x="405" y="250" type="line"/>
      <point x="653" y="261" type="line"/>
    </contour>
  </outline>
</glyph>
<glyph name="dotlessj" format="1">
  <advance width="187"/>
  <unicode hex="0237"/>
    <anchor name="top" x="93" y="735"/>
  <outline>
    <contour>
      <point x="147" y="-63" type="line" smooth="yes"/>
      <point x="147" y="-97"/>
      <point x="133" y="-147"/>
      <point x="116" y="-166" type="qcurve" smooth="yes"/>
      <point x="103" y="-180"/>
      <point x="67" y="-201"/>
      <point x="42" y="-209" type="qcurve"/>
      <point x="26" y="-166" type="line"/>
      <point x="41" y="-160"/>
      <point x="64" y="-142"/>
      <point x="72" y="-131" type="qcurve" smooth="yes"/>
      <point x="91" y="-105"/>
      <point x="91" y="-62" type="qcurve" smooth="yes"/>
      <point x="91" y="447" type="line"/>
      <point x="28" y="447" type="line"/>
      <point x="28" y="499" type="line"/>
      <point x="147" y="499" type="line"/>
    </contour>
    <contour>
      <point x="93" y="735" type="move" name="top"/>
    </contour>
  </outline>
</glyph>
<glyph name="dotaccent" format="1">
  <advance width="266"/>
  <unicode hex="02D9"/>
  <outline>
    <contour>
      <point x="133" y="748" type="qcurve" smooth="yes"/>
      <point x="147" y="748"/>
      <point x="166" y="728"/>
      <point x="166" y="714" type="qcurve" smooth="yes"/>
      <point x="166" y="701"/>
      <point x="147" y="681"/>
      <point x="133" y="681" type="qcurve" smooth="yes"/>
      <point x="119" y="681"/>
      <point x="100" y="701"/>
      <point x="100" y="714" type="qcurve" smooth="yes"/>
      <point x="100" y="728"/>
      <point x="119" y="748"/>
    </contour>
  </outline>
</glyph>
<glyph name="ogonek" format="1">
  <advance width="266"/>
  <unicode hex="02DB"/>
  <outline>
    <contour>
      <point x="161" y="11" type="line"/>
      <point x="161" y="2" type="line"/>
      <point x="90" y="-122" type="line" smooth="yes"/>
      <point x="77" y="-145"/>
      <point x="83" y="-179"/>
      <point x="115" y="-192"/>
      <point x="139" y="-184" type="qcurve" smooth="yes"/>
      <point x="160" y="-176"/>
      <point x="195" y="-164"/>
      <point x="221" y="-155"/>
      <point x="236" y="-150"/>
      <point x="236" y="-150" type="qcurve"/>
      <point x="254" y="-189" type="line"/>
      <point x="254" y="-189"/>
      <point x="227" y="-199"/>
      <point x="190" y="-212"/>
      <point x="157" y="-224"/>
      <point x="150" y="-226" type="qcurve" smooth="yes"/>
      <point x="117" y="-235"/>
      <point x="67" y="-222"/>
      <point x="39" y="-185"/>
      <point x="38" y="-135"/>
      <point x="53" y="-108" type="qcurve" smooth="yes"/>
      <point x="117" y="3" type="line"/>
      <point x="117" y="8" type="line"/>
    </contour>
  </outline>
</glyph>
<glyph name="tilde" format="1">
  <advance width="266"/>
  <unicode hex="02DC"/>
  <outline>
    <contour>
      <point x="205" y="717" type="line"/>
      <point x="255" y="717" type="line"/>
      <point x="255" y="699" type="line" smooth="yes"/>
      <point x="255" y="668"/>
      <point x="224" y="617"/>
      <point x="189" y="617" type="qcurve" smooth="yes"/>
      <point x="173" y="617"/>
      <point x="146" y="630"/>
      <point x="133" y="638" type="qcurve" smooth="yes"/>
      <point x="124" y="643"/>
      <point x="107" y="655"/>
      <point x="99" y="660" type="qcurve" smooth="yes"/>
      <point x="92" y="665"/>
      <point x="74" y="671"/>
      <point x="67" y="666" type="qcurve" smooth="yes"/>
      <point x="62" y="662"/>
      <point x="61" y="643"/>
      <point x="61" y="638" type="qcurve" smooth="yes"/>
      <point x="61" y="620" type="line"/>
      <point x="11" y="620" type="line"/>
      <point x="11" y="638" type="line" smooth="yes"/>
      <point x="11" y="656"/>
      <point x="21" y="692"/>
      <point x="36" y="705" type="qcurve" smooth="yes"/>
      <point x="51" y="717"/>
      <point x="91" y="719"/>
      <point x="108" y="711" type="qcurve" smooth="yes"/>
      <point x="119" y="707"/>
      <point x="141" y="692"/>
      <point x="151" y="685" type="qcurve" smooth="yes"/>
      <point x="159" y="680"/>
      <point x="169" y="673"/>
      <point x="176" y="670" type="qcurve" smooth="yes"/>
      <point x="194" y="662"/>
      <point x="205" y="685"/>
      <point x="205" y="699" type="qcurve" smooth="yes"/>
    </contour>
  </outline>
</glyph>
<glyph name="hungarumlaut" format="1">
  <advance width="266"/>
  <unicode hex="02DD"/>
  <outline>
    <contour>
      <point x="145" y="658" type="qcurve"/>
      <point x="91" y="580" type="line"/>
      <point x="56" y="580" type="line"/>
      <point x="94" y="686" type="line" smooth="yes"/>
      <point x="99" y="700"/>
      <point x="125" y="714"/>
      <point x="138" y="706" type="qcurve" smooth="yes"/>
      <point x="152" y="699"/>
      <point x="154" y="669"/>
    </contour>
    <contour>
      <point x="256" y="658" type="qcurve"/>
      <point x="203" y="580" type="line"/>
      <point x="168" y="580" type="line"/>
      <point x="205" y="686" type="line" smooth="yes"/>
      <point x="210" y="700"/>
      <point x="236" y="714"/>
      <point x="249" y="706" type="qcurve" smooth="yes"/>
      <point x="263" y="699"/>
      <point x="266" y="669"/>
    </contour>
  </outline>
</glyph>
<glyph name="tonos" format="1">
  <advance width="266"/>
  <unicode hex="0384"/>
  <outline>
    <contour>
      <point x="202" y="682" type="qcurve"/>
      <point x="149" y="603" type="line"/>
      <point x="114" y="603" type="line"/>
      <point x="152" y="710" type="line" smooth="yes"/>
      <point x="157" y="724"/>
      <point x="182" y="737"/>
      <point x="195" y="729" type="qcurve" smooth="yes"/>
      <point x="209" y="722"/>
      <point x="212" y="693"/>
    </contour>
  </outline>
</glyph>
<glyph name="Phi" format="1">
  <advance width="593"/>
  <unicode hex="03A6"/>
  <outline>
    <contour>
      <point x="180" y="659" type="line"/>
      <point x="150" y="652"/>
      <point x="109" y="615"/>
      <point x="89" y="556"/>
      <point x="89" y="516" type="qcurve" smooth="yes"/>
      <point x="89" y="215" type="line" smooth="yes"/>
      <point x="89" y="171"/>
      <point x="122" y="110"/>
      <point x="183" y="79"/>
      <point x="223" y="79" type="qcurve" smooth="yes"/>
      <point x="266" y="79" type="line"/>
      <point x="266" y="603" type="line"/>
      <point x="268" y="628"/>
      <point x="284" y="667"/>
      <point x="312" y="694"/>
      <point x="350" y="708"/>
      <point x="373" y="708" type="qcurve" smooth="yes"/>
      <point x="432" y="708"/>
      <point x="514" y="659"/>
      <point x="558" y="570"/>
      <point x="558" y="509" type="qcurve" smooth="yes"/>
      <point x="558" y="224" type="line" smooth="yes"/>
      <point x="558" y="164"/>
      <point x="518" y="77"/>
      <point x="436" y="30"/>
      <point x="372" y="30" type="qcurve" smooth="yes"/>
      <point x="323" y="30" type="line"/>
      <point x="323" y="-35" type="line"/>
      <point x="266" y="-28" type="line"/>
      <point x="266" y="30" type="line"/>
      <point x="223" y="30" type="line" smooth="yes"/>
      <point x="159" y="30"/>
      <point x="75" y="77"/>
      <point x="33" y="164"/>
      <point x="33" y="224" type="qcurve" smooth="yes"/>
      <point x="33" y="516" type="line" smooth="yes"/>
      <point x="33" y="666"/>
      <point x="150" y="704" type="qcurve"/>
    </contour>
    <contour>
      <point x="372" y="79" type="line" smooth="yes"/>
      <point x="413" y="79"/>
      <point x="472" y="110"/>
      <point x="505" y="171"/>
      <point x="505" y="215" type="qcurve" smooth="yes"/>
      <point x="505" y="519" type="line" smooth="yes"/>
      <point x="505" y="560"/>
      <point x="473" y="621"/>
      <point x="417" y="656"/>
      <point x="381" y="656" type="qcurve" smooth="yes"/>
      <point x="362" y="656"/>
      <point x="336" y="642"/>
      <point x="323" y="615"/>
      <point x="323" y="594" type="qcurve" smooth="yes"/>
      <point x="323" y="79" type="line"/>
    </contour>
  </outline>
</glyph>
<glyph name="Psi" format="1">
  <advance width="589"/>
  <unicode hex="03A8"/>
  <outline>
    <contour>
      <point x="87" y="395" type="line" smooth="yes"/>
      <point x="87" y="329"/>
      <point x="159" y="263"/>
      <point x="219" y="263" type="qcurve" smooth="yes"/>
      <point x="263" y="263" type="line"/>
      <point x="263" y="698" type="line"/>
      <point x="320" y="698" type="line"/>
      <point x="320" y="263" type="line"/>
      <point x="370" y="263" type="line" smooth="yes"/>
      <point x="429" y="263"/>
      <point x="500" y="329"/>
      <point x="500" y="395" type="qcurve" smooth="yes"/>
      <point x="500" y="562" type="line" smooth="yes"/>
      <point x="500" y="610"/>
      <point x="478" y="666"/>
      <point x="456" y="691"/>
      <point x="456" y="691" type="qcurve"/>
      <point x="500" y="707" type="line"/>
      <point x="518" y="695"/>
      <point x="543" y="654"/>
      <point x="556" y="593"/>
      <point x="556" y="548" type="qcurve" smooth="yes"/>
      <point x="556" y="405" type="line" smooth="yes"/>
      <point x="556" y="314"/>
      <point x="465" y="212"/>
      <point x="370" y="212" type="qcurve" smooth="yes"/>
      <point x="320" y="212" type="line"/>
      <point x="320" y="0" type="line"/>
      <point x="263" y="0" type="line"/>
      <point x="263" y="212" type="line"/>
      <point x="219" y="212" type="line" smooth="yes"/>
      <point x="125" y="212"/>
      <point x="31" y="314"/>
      <point x="31" y="405" type="qcurve" smooth="yes"/>
      <point x="31" y="698" type="line"/>
      <point x="87" y="698" type="line"/>
    </contour>
  </outline>
</glyph>
<glyph name="epsilon" format="1">
  <advance width="395"/>
  <unicode hex="03B5"/>
    <anchor name="tonos" x="197" y="545"/>
  <outline>
    <contour>
      <point x="301" y="443" type="line"/>
      <point x="255" y="458"/>
      <point x="203" y="459"/>
      <point x="179" y="455" type="qcurve"/>
      <point x="139" y="450"/>
      <point x="105" y="407"/>
      <point x="105" y="381" type="qcurve" smooth="yes"/>
      <point x="105" y="351"/>
      <point x="148" y="300"/>
      <point x="182" y="300" type="qcurve" smooth="yes"/>
      <point x="301" y="300" type="line"/>
      <point x="281" y="246" type="line"/>
      <point x="183" y="246" type="line" smooth="yes"/>
      <point x="164" y="246"/>
      <point x="113" y="227"/>
      <point x="76" y="183"/>
      <point x="76" y="145" type="qcurve" smooth="yes"/>
      <point x="76" y="101"/>
      <point x="150" y="41"/>
      <point x="212" y="42" type="qcurve" smooth="yes"/>
      <point x="235" y="43"/>
      <point x="282" y="51"/>
      <point x="331" y="65"/>
      <point x="355" y="74" type="qcurve"/>
      <point x="371" y="23" type="line"/>
      <point x="336" y="7"/>
      <point x="246" y="-11"/>
      <point x="202" y="-11" type="qcurve" smooth="yes"/>
      <point x="139" y="-11"/>
      <point x="59" y="34"/>
      <point x="20" y="107"/>
      <point x="20" y="148" type="qcurve" smooth="yes"/>
      <point x="20" y="189"/>
      <point x="65" y="262"/>
      <point x="104" y="278" type="qcurve"/>
      <point x="88" y="287"/>
      <point x="62" y="318"/>
      <point x="48" y="357"/>
      <point x="47" y="378" type="qcurve"/>
      <point x="47" y="410"/>
      <point x="79" y="470"/>
      <point x="148" y="509"/>
      <point x="201" y="509" type="qcurve" smooth="yes"/>
      <point x="223" y="509"/>
      <point x="273" y="503"/>
      <point x="301" y="495" type="qcurve"/>
    </contour>
    <contour>
      <point x="197" y="545" type="move" name="tonos"/>
    </contour>
  </outline>
</glyph>
<glyph name="eta" format="1">
  <advance width="443"/>
  <unicode hex="03B7"/>
    <anchor name="tonos" x="221" y="545"/>
  <outline>
    <contour>
      <point x="351" y="342" type="line" smooth="yes"/>
      <point x="351" y="387"/>
      <point x="313" y="438"/>
      <point x="253" y="458"/>
      <point x="221" y="458" type="qcurve" smooth="yes"/>
      <point x="187" y="458"/>
      <point x="125" y="441"/>
      <point x="94" y="424" type="qcurve"/>
      <point x="94" y="0" type="line"/>
      <point x="38" y="0" type="line"/>
      <point x="38" y="499" type="line"/>
      <point x="94" y="499" type="line"/>
      <point x="94" y="465" type="line"/>
      <point x="123" y="485"/>
      <point x="195" y="508"/>
      <point x="232" y="508" type="qcurve" smooth="yes"/>
      <point x="273" y="508"/>
      <point x="338" y="487"/>
      <point x="383" y="445"/>
      <point x="406" y="384"/>
      <point x="406" y="345" type="qcurve" smooth="yes"/>
      <point x="406" y="-209" type="line"/>
      <point x="351" y="-186" type="line"/>
    </contour>
    <contour>
      <point x="221" y="545" type="move" name="tonos"/>
    </contour>
  </outline>
</glyph>
<glyph name="theta" format="1">
  <advance width="441"/>
  <unicode hex="03B8"/>
  <outline>
    <contour>
      <point x="219" y="707" type="qcurve" smooth="yes"/>
      <point x="314" y="707"/>
      <point x="404" y="598"/>
      <point x="404" y="503" type="qcurve" smooth="yes"/>
      <point x="404" y="188" type="line" smooth="yes"/>
      <point x="404" y="91"/>
      <point x="311" y="-6"/>
      <point x="219" y="-6" type="qcurve" smooth="yes"/>
      <point x="125" y="-6"/>
      <point x="32" y="97"/>
      <point x="32" y="188" type="qcurve" smooth="yes"/>
      <point x="32" y="310" type="line" smooth="yes"/>
      <point x="32" y="355"/>
      <point x="55" y="426"/>
      <point x="77" y="451" type="qcurve"/>
      <point x="65" y="471"/>
      <point x="54" y="510"/>
      <point x="50" y="545"/>
      <point x="50" y="557" type="qcurve" smooth="yes"/>
      <point x="50" y="596"/>
      <point x="88" y="665"/>
      <point x="163" y="707"/>
    </contour>
    <contour>
      <point x="348" y="504" type="line" smooth="yes"/>
      <point x="348" y="585"/>
      <point x="277" y="654"/>
      <point x="220" y="654" type="qcurve" smooth="yes"/>
      <point x="183" y="654"/>
      <point x="133" y="627"/>
      <point x="108" y="582"/>
      <point x="108" y="555" type="qcurve" smooth="yes"/>
      <point x="108" y="548"/>
      <point x="111" y="510"/>
      <point x="131" y="464"/>
      <point x="181" y="421"/>
      <point x="273" y="393"/>
      <point x="348" y="393" type="qcurve"/>
    </contour>
    <contour>
      <point x="219" y="42" type="qcurve" smooth="yes"/>
      <point x="262" y="42"/>
      <point x="319" y="72"/>
      <point x="348" y="131"/>
      <point x="348" y="175" type="qcurve" smooth="yes"/>
      <point x="348" y="348" type="line"/>
      <point x="258" y="344"/>
      <point x="145" y="380"/>
      <point x="113" y="408" type="qcurve"/>
      <point x="100" y="390"/>
      <point x="88" y="341"/>
      <point x="88" y="310" type="qcurve" smooth="yes"/>
      <point x="88" y="175" type="line" smooth="yes"/>
      <point x="88" y="131"/>
      <point x="121" y="72"/>
      <point x="180" y="42"/>
    </contour>
  </outline>
</glyph>
<glyph name="lambda" format="1">
  <advance width="502"/>
  <unicode hex="03BB"/>
  <outline>
    <contour>
      <point x="397" y="123" type="line" smooth="yes"/>
      <point x="400" y="112"/>
      <point x="419" y="70"/>
      <point x="455" y="29"/>
      <point x="484" y="20" type="qcurve"/>
      <point x="475" y="13"/>
      <point x="456" y="-3"/>
      <point x="447" y="-11" type="qcurve"/>
      <point x="418" y="-4"/>
      <point x="380" y="26"/>
      <point x="356" y="76"/>
      <point x="345" y="111" type="qcurve" smooth="yes"/>
      <point x="337" y="140"/>
      <point x="319" y="197"/>
      <point x="302" y="254"/>
      <point x="285" y="311"/>
      <point x="268" y="368"/>
      <point x="251" y="426"/>
      <point x="242" y="454" type="qcurve"/>
      <point x="225" y="445"/>
      <point x="198" y="406"/>
      <point x="184" y="359" type="qcurve" smooth="yes"/>
      <point x="175" y="329"/>
      <point x="158" y="269"/>
      <point x="140" y="209"/>
      <point x="123" y="149"/>
      <point x="105" y="89"/>
      <point x="88" y="29"/>
      <point x="79" y="-1" type="qcurve"/>
      <point x="23" y="-1" type="line"/>
      <point x="32" y="30"/>
      <point x="50" y="91"/>
      <point x="68" y="153"/>
      <point x="86" y="215"/>
      <point x="104" y="277"/>
      <point x="122" y="339"/>
      <point x="131" y="370" type="qcurve" smooth="yes"/>
      <point x="140" y="399"/>
      <point x="162" y="452"/>
      <point x="197" y="493"/>
      <point x="225" y="504" type="qcurve"/>
      <point x="203" y="576" type="line" smooth="yes"/>
      <point x="197" y="598"/>
      <point x="172" y="632"/>
      <point x="134" y="652"/>
      <point x="107" y="652" type="qcurve"/>
      <point x="117" y="695" type="line"/>
      <point x="162" y="694"/>
      <point x="216" y="663"/>
      <point x="246" y="617"/>
      <point x="261" y="571"/>
      <point x="267" y="555" type="qcurve"/>
    </contour>
  </outline>
</glyph>
<glyph name="pi" format="1">
  <advance width="472"/>
  <unicode hex="03C0"/>
  <outline>
    <contour>
      <point x="413" y="69" type="line"/>
      <point x="415" y="55"/>
      <point x="431" y="34"/>
      <point x="443" y="26" type="qcurve"/>
      <point x="416" y="-6" type="line"/>
      <point x="416" y="-6"/>
      <point x="398" y="1"/>
      <point x="376" y="20"/>
      <point x="358" y="53"/>
      <point x="358" y="78" type="qcurve"/>
      <point x="359" y="452" type="line"/>
      <point x="94" y="452" type="line"/>
      <point x="94" y="0" type="line"/>
      <point x="38" y="0" type="line"/>
      <point x="38" y="498" type="line"/>
      <point x="413" y="498" type="line"/>
    </contour>
  </outline>
</glyph>
<glyph name="rho" format="1">
  <advance width="436"/>
  <unicode hex="03C1"/>
  <outline>
    <contour>
      <point x="404" y="170" type="line" smooth="yes"/>
      <point x="404" y="78"/>
      <point x="318" y="-18"/>
      <point x="235" y="-18" type="qcurve" smooth="yes"/>
      <point x="204" y="-18"/>
      <point x="147" y="2"/>
      <point x="104" y="35"/>
      <point x="92" y="56" type="qcurve"/>
      <point x="92" y="-218" type="line"/>
      <point x="35" y="-205" type="line"/>
      <point x="35" y="310" type="line" smooth="yes"/>
      <point x="35" y="405"/>
      <point x="133" y="506"/>
      <point x="221" y="506" type="qcurve" smooth="yes"/>
      <point x="310" y="506"/>
      <point x="404" y="401"/>
      <point x="404" y="310" type="qcurve" smooth="yes"/>
    </contour>
    <contour>
      <point x="348" y="310" type="line" smooth="yes"/>
      <point x="348" y="383"/>
      <point x="287" y="454"/>
      <point x="224" y="454" type="qcurve" smooth="yes"/>
      <point x="158" y="454"/>
      <point x="92" y="383"/>
      <point x="92" y="310" type="qcurve" smooth="yes"/>
      <point x="92" y="167" type="line" smooth="yes"/>
      <point x="92" y="124"/>
      <point x="129" y="66"/>
      <point x="192" y="35"/>
      <point x="230" y="35" type="qcurve" smooth="yes"/>
      <point x="287" y="35"/>
      <point x="348" y="99"/>
      <point x="348" y="162" type="qcurve" smooth="yes"/>
    </contour>
  </outline>
</glyph>
<glyph name="tau" format="1">
  <advance width="350"/>
  <unicode hex="03C4"/>
  <outline>
    <contour>
      <point x="196" y="132" type="line" smooth="yes"/>
      <point x="196" y="106"/>
      <point x="211" y="65"/>
      <point x="240" y="38"/>
      <point x="262" y="30" type="qcurve"/>
      <point x="246" y="-13" type="line"/>
      <point x="190" y="3"/>
      <point x="140" y="73"/>
      <point x="140" y="132" type="qcurve" smooth="yes"/>
      <point x="140" y="446" type="line"/>
      <point x="20" y="446" type="line"/>
      <point x="20" y="498" type="line"/>
      <point x="323" y="498" type="line"/>
      <point x="323" y="446" type="line"/>
      <point x="196" y="446" type="line"/>
    </contour>
  </outline>
</glyph>
<glyph name="psi" format="1">
  <advance width="592"/>
  <unicode hex="03C8"/>
  <outline>
    <contour>
      <point x="526" y="504" type="line"/>
      <point x="547" y="479"/>
      <point x="558" y="424"/>
      <point x="558" y="386" type="qcurve" smooth="yes"/>
      <point x="558" y="188" type="line" smooth="yes"/>
      <point x="558" y="98"/>
      <point x="465" y="-7"/>
      <point x="370" y="-7" type="qcurve" smooth="yes"/>
      <point x="326" y="-7" type="line"/>
      <point x="326" y="-216" type="line"/>
      <point x="269" y="-202" type="line"/>
      <point x="269" y="-7" type="line"/>
      <point x="219" y="-7" type="line" smooth="yes"/>
      <point x="125" y="-7"/>
      <point x="33" y="98"/>
      <point x="33" y="188" type="qcurve" smooth="yes"/>
      <point x="33" y="498" type="line"/>
      <point x="86" y="498" type="line"/>
      <point x="86" y="178" type="line" smooth="yes"/>
      <point x="86" y="112"/>
      <point x="160" y="43"/>
      <point x="219" y="43" type="qcurve" smooth="yes"/>
      <point x="269" y="43" type="line"/>
      <point x="269" y="498" type="line"/>
      <point x="326" y="498" type="line"/>
      <point x="326" y="43" type="line"/>
      <point x="370" y="43" type="line" smooth="yes"/>
      <point x="410" y="43"/>
      <point x="469" y="74"/>
      <point x="502" y="134"/>
      <point x="502" y="178" type="qcurve" smooth="yes"/>
      <point x="502" y="386" type="line" smooth="yes"/>
      <point x="502" y="418"/>
      <point x="490" y="468"/>
      <point x="467" y="487" type="qcurve"/>
    </contour>
  </outline>
</glyph>
<glyph name="quoteleft" format="1">
  <advance width="127"/>
  <unicode hex="2018"/>
  <outline>
    <contour>
      <point x="97" y="700" type="line"/>
      <point x="81" y="680"/>
      <point x="67" y="641"/>
      <point x="65" y="625" type="qcurve"/>
      <point x="78" y="622"/>
      <point x="94" y="604"/>
      <point x="94" y="592" type="qcurve" smooth="yes"/>
      <point x="94" y="578"/>
      <point x="74" y="559"/>
      <point x="60" y="559" type="qcurve" smooth="yes"/>
      <point x="47" y="559"/>
      <point x="27" y="577"/>
      <point x="27" y="592" type="qcurve" smooth="yes"/>
      <point x="27" y="615"/>
      <point x="38" y="654"/>
      <point x="54" y="684"/>
      <point x="72" y="705"/>
      <point x="79" y="712" type="qcurve"/>
    </contour>
  </outline>
</glyph>
<glyph name="quoteright" format="1">
  <advance width="128"/>
  <unicode hex="2019"/>
  <outline>
    <contour>
      <point x="29" y="557" type="line"/>
      <point x="45" y="577"/>
      <point x="59" y="615"/>
      <point x="60" y="631" type="qcurve"/>
      <point x="49" y="634"/>
      <point x="33" y="652"/>
      <point x="33" y="664" type="qcurve" smooth="yes"/>
      <point x="33" y="678"/>
      <point x="53" y="698"/>
      <point x="66" y="698" type="qcurve" smooth="yes"/>
      <point x="80" y="698"/>
      <point x="100" y="679"/>
      <point x="100" y="664" type="qcurve" smooth="yes"/>
      <point x="100" y="641"/>
      <point x="89" y="603"/>
      <point x="73" y="573"/>
      <point x="55" y="551"/>
      <point x="47" y="544" type="qcurve"/>
    </contour>
  </outline>
</glyph>
<glyph name="quotedblright" format="1">
  <advance width="307"/>
  <unicode hex="201D"/>
  <outline>
    <contour>
      <point x="29" y="557" type="line"/>
      <point x="45" y="577"/>
      <point x="59" y="615"/>
      <point x="60" y="631" type="qcurve"/>
      <point x="49" y="634"/>
      <point x="33" y="652"/>
      <point x="33" y="664" type="qcurve" smooth="yes"/>
      <point x="33" y="678"/>
      <point x="52" y="698"/>
      <point x="66" y="698" type="qcurve" smooth="yes"/>
      <point x="80" y="698"/>
      <point x="99" y="679"/>
      <point x="100" y="664" type="qcurve"/>
      <point x="100" y="641"/>
      <point x="89" y="603"/>
      <point x="72" y="573"/>
      <point x="55" y="551"/>
      <point x="47" y="544" type="qcurve"/>
    </contour>
    <contour>
      <point x="209" y="557" type="line"/>
      <point x="225" y="577"/>
      <point x="238" y="615"/>
      <point x="240" y="631" type="qcurve"/>
      <point x="228" y="634"/>
      <point x="212" y="652"/>
      <point x="212" y="664" type="qcurve" smooth="yes"/>
      <point x="212" y="678"/>
      <point x="232" y="698"/>
      <point x="245" y="698" type="qcurve" smooth="yes"/>
      <point x="259" y="698"/>
      <point x="279" y="679"/>
      <point x="279" y="664" type="qcurve" smooth="yes"/>
      <point x="279" y="641"/>
      <point x="268" y="603"/>
      <point x="252" y="573"/>
      <point x="234" y="551"/>
      <point x="226" y="544" type="qcurve"/>
    </contour>
  </outline>
</glyph>
<glyph name="ellipsis" format="1">
  <advance width="488"/>
  <unicode hex="2026"/>
  <outline>
    <contour>
      <point x="68" y="63" type="qcurve" smooth="yes"/>
      <point x="82" y="63"/>
      <point x="101" y="43"/>
      <point x="101" y="29" type="qcurve" smooth="yes"/>
      <point x="101" y="16"/>
      <point x="82" y="-4"/>
      <point x="68" y="-4" type="qcurve" smooth="yes"/>
      <point x="54" y="-4"/>
      <point x="35" y="16"/>
      <point x="35" y="29" type="qcurve" smooth="yes"/>
      <point x="35" y="43"/>
      <point x="54" y="63"/>
    </contour>
    <contour>
      <point x="243" y="63" type="qcurve" smooth="yes"/>
      <point x="256" y="63"/>
      <point x="276" y="43"/>
      <point x="276" y="29" type="qcurve" smooth="yes"/>
      <point x="276" y="16"/>
      <point x="256" y="-4"/>
      <point x="243" y="-4" type="qcurve" smooth="yes"/>
      <point x="229" y="-4"/>
      <point x="209" y="16"/>
      <point x="209" y="29" type="qcurve" smooth="yes"/>
      <point x="209" y="43"/>
      <point x="229" y="63"/>
    </contour>
    <contour>
      <point x="421" y="63" type="qcurve" smooth="yes"/>
      <point x="435" y="63"/>
      <point x="454" y="43"/>
      <point x="454" y="29" type="qcurve" smooth="yes"/>
      <point x="454" y="16"/>
      <point x="435" y="-4"/>
      <point x="421" y="-4" type="qcurve" smooth="yes"/>
      <point x="407" y="-4"/>
      <point x="388" y="16"/>
      <point x="388" y="29" type="qcurve" smooth="yes"/>
      <point x="388" y="43"/>
      <point x="407" y="63"/>
    </contour>
  </outline>
</glyph>
<glyph name="perthousand" format="1">
  <advance width="1055"/>
  <unicode hex="2030"/>
  <outline>
    <contour>
      <point x="49" y="0" type="line"/>
      <point x="586" y="698" type="line"/>
      <point x="650" y="698" type="line"/>
      <point x="117" y="0" type="line"/>
    </contour>
    <contour>
      <point x="175" y="712" type="qcurve" smooth="yes"/>
      <point x="215" y="712"/>
      <point x="280" y="673"/>
      <point x="320" y="607"/>
      <point x="320" y="566" type="qcurve" smooth="yes"/>
      <point x="320" y="526"/>
      <point x="280" y="460"/>
      <point x="215" y="421"/>
      <point x="175" y="421" type="qcurve" smooth="yes"/>
      <point x="135" y="421"/>
      <point x="68" y="460"/>
      <point x="29" y="526"/>
      <point x="29" y="566" type="qcurve" smooth="yes"/>
      <point x="29" y="607"/>
      <point x="68" y="673"/>
      <point x="135" y="712"/>
    </contour>
    <contour>
      <point x="175" y="661" type="qcurve" smooth="yes"/>
      <point x="149" y="661"/>
      <point x="105" y="635"/>
      <point x="80" y="592"/>
      <point x="80" y="566" type="qcurve" smooth="yes"/>
      <point x="80" y="541"/>
      <point x="105" y="498"/>
      <point x="149" y="472"/>
      <point x="175" y="472" type="qcurve" smooth="yes"/>
      <point x="201" y="472"/>
      <point x="243" y="498"/>
      <point x="268" y="541"/>
      <point x="268" y="566" type="qcurve" smooth="yes"/>
      <point x="268" y="592"/>
      <point x="243" y="635"/>
      <point x="201" y="661"/>
    </contour>
    <contour>
      <point x="534" y="276" type="qcurve" smooth="yes"/>
      <point x="575" y="276"/>
      <point x="640" y="237"/>
      <point x="679" y="171"/>
      <point x="679" y="131" type="qcurve" smooth="yes"/>
      <point x="679" y="91"/>
      <point x="640" y="25"/>
      <point x="575" y="-14"/>
      <point x="534" y="-14" type="qcurve" smooth="yes"/>
      <point x="494" y="-14"/>
      <point x="428" y="25"/>
      <point x="389" y="91"/>
      <point x="389" y="131" type="qcurve" smooth="yes"/>
      <point x="389" y="171"/>
      <point x="428" y="237"/>
      <point x="494" y="276"/>
    </contour>
    <contour>
      <point x="534" y="226" type="qcurve" smooth="yes"/>
      <point x="509" y="226"/>
      <point x="466" y="201"/>
      <point x="440" y="158"/>
      <point x="440" y="131" type="qcurve" smooth="yes"/>
      <point x="440" y="105"/>
      <point x="466" y="62"/>
      <point x="509" y="37"/>
      <point x="534" y="37" type="qcurve" smooth="yes"/>
      <point x="560" y="37"/>
      <point x="603" y="62"/>
      <point x="629" y="105"/>
      <point x="629" y="131" type="qcurve" smooth="yes"/>
      <point x="629" y="158"/>
      <point x="603" y="201"/>
      <point x="560" y="226"/>
    </contour>
    <contour>
      <point x="880" y="276" type="qcurve" smooth="yes"/>
      <point x="920" y="276"/>
      <point x="986" y="237"/>
      <point x="1025" y="171"/>
      <point x="1025" y="131" type="qcurve" smooth="yes"/>
      <point x="1025" y="91"/>
      <point x="986" y="25"/>
      <point x="920" y="-14"/>
      <point x="880" y="-14" type="qcurve" smooth="yes"/>
      <point x="840" y="-14"/>
      <point x="774" y="25"/>
      <point x="735" y="91"/>
      <point x="735" y="131" type="qcurve" smooth="yes"/>
      <point x="735" y="171"/>
      <point x="774" y="237"/>
      <point x="840" y="276"/>
    </contour>
    <contour>
      <point x="880" y="226" type="qcurve" smooth="yes"/>
      <point x="854" y="226"/>
      <point x="810" y="201"/>
      <point x="785" y="158"/>
      <point x="785" y="131" type="qcurve" smooth="yes"/>
      <point x="785" y="105"/>
      <point x="810" y="62"/>
      <point x="854" y="37"/>
      <point x="880" y="37" type="qcurve" smooth="yes"/>
      <point x="906" y="37"/>
      <point x="948" y="62"/>
      <point x="973" y="105"/>
      <point x="973" y="131" type="qcurve" smooth="yes"/>
      <point x="973" y="158"/>
      <point x="948" y="201"/>
      <point x="906" y="226"/>
    </contour>
  </outline>
</glyph>
<glyph name="ft" format="1">
  <advance width="469"/>
  <outline>
    <contour>
      <point x="324" y="132" type="line" smooth="yes"/>
      <point x="324" y="92"/>
      <point x="357" y="41"/>
      <point x="390" y="30" type="qcurve"/>
      <point x="374" y="-13" type="line"/>
      <point x="318" y="3"/>
      <point x="269" y="73"/>
      <point x="269" y="132" type="qcurve" smooth="yes"/>
      <point x="269" y="621" type="line"/>
      <point x="246" y="637"/>
      <point x="204" y="646"/>
      <point x="188" y="646" type="qcurve" smooth="yes"/>
      <point x="164" y="646"/>
      <point x="122" y="626"/>
      <point x="97" y="583"/>
      <point x="97" y="548" type="qcurve" smooth="yes"/>
      <point x="97" y="498" type="line"/>
      <point x="210" y="498" type="line"/>
      <point x="186" y="446" type="line"/>
      <point x="97" y="446" type="line"/>
      <point x="97" y="0" type="line"/>
      <point x="83" y="0"/>
      <point x="55" y="0"/>
      <point x="41" y="0" type="qcurve"/>
      <point x="41" y="560" type="line"/>
      <point x="40" y="593"/>
      <point x="63" y="646"/>
      <point x="104" y="684"/>
      <point x="160" y="704"/>
      <point x="191" y="704" type="qcurve" smooth="yes"/>
      <point x="224" y="704"/>
      <point x="293" y="680"/>
      <point x="325" y="654" type="qcurve"/>
      <point x="325" y="498" type="line"/>
      <point x="444" y="498" type="line"/>
      <point x="421" y="446" type="line"/>
      <point x="324" y="446" type="line"/>
    </contour>
  </outline>
</glyph>
